<svg width="22" height="22" viewBox="0 0 22 22" fill="none" xmlns="http://www.w3.org/2000/svg">
<path d="M3.10108 16.8125C3.15686 16.6072 3.03358 16.3217 2.91592 16.1159C2.87928 16.0546 2.83954 15.9951 2.79686 15.9378C1.78774 14.4075 1.24989 12.6147 1.24999 10.7816C1.23358 5.51984 5.5967 1.25 10.992 1.25C15.6973 1.25 19.625 4.50969 20.5428 8.83672C20.6803 9.47825 20.7498 10.1325 20.75 10.7886C20.75 16.0578 16.5551 20.3947 11.1598 20.3947C10.302 20.3947 9.1442 20.1791 8.5128 20.0023C7.88139 19.8256 7.25092 19.5913 7.08827 19.5284C6.92191 19.4645 6.74524 19.4316 6.56702 19.4314C6.37235 19.4307 6.17955 19.4694 6.0003 19.5453L2.82077 20.6928C2.75111 20.7228 2.6773 20.7421 2.60186 20.75C2.54233 20.7498 2.48342 20.7378 2.42856 20.7147C2.37369 20.6916 2.32396 20.6579 2.28223 20.6154C2.24051 20.5729 2.20762 20.5226 2.18549 20.4673C2.16335 20.4121 2.1524 20.353 2.15327 20.2934C2.15723 20.2412 2.16666 20.1895 2.18139 20.1392L3.10108 16.8125Z" stroke="black" stroke-width="1.5" stroke-miterlimit="10" stroke-linecap="round"/>
</svg>
